<svg xmlns="http://www.w3.org/2000/svg" viewBox="0 0 99.35 85.87"><title>blog</title><g id="Layer_2" data-name="Layer 2"><g id="Layer_1-2" data-name="Layer 1"><path d="M0,7.23C2.68,1.09,6.52-.93,13.28.38,13.9.5,14.36,1.44,14.9,2c-.6.5-1.16,1.36-1.82,1.45-1.56.22-3.17,0-4.76.1-2.57.14-4.57,1.67-4.7,4.13-.23,4-.07,8-.07,12.14H82.8c0-4.13.17-8.15-.06-12.14C82.58,5,80.42,3.55,77.25,3.55q-18.68,0-37.36,0c-4.06,0-8.13.1-12.18-.08-.93,0-1.81-1.09-2.71-1.67C25.88,1.3,26.76.37,27.65.36q25-.12,50.07,0c5,0,8.39,3.34,8.54,8.45.1,3.66,0,7.33,0,11.46.86-.71,1.38-1.12,1.87-1.55,3-2.65,6.91-2.64,9.5,0,2.39,2.45,2.26,6.81-.38,9.51C94.19,31.36,91,34.35,88,37.58a6.33,6.33,0,0,0-1.61,3.83c-.13,11.23-.08,22.47-.08,33.7,0,8-2.71,10.67-10.84,10.67-21.46,0-42.92-.13-64.38.09C5.73,85.93,2,84.38,0,79.4ZM82.92,43.36l-.64-.27C76.69,48.66,70.76,54,65.61,59.89c-4.15,4.79-9.74,6-15.17,7.84-1.9.64-2.79-.45-2.22-2.48.52-1.86,1.3-3.64,1.77-5.51a17.2,17.2,0,0,1,5.15-8.33C63.85,43,72.41,34.33,81,25.76c.62-.62,1.18-1.31,2.07-2.3H3.72a3.63,3.63,0,0,0-.27.89c0,17.72-.06,35.45,0,53.17,0,3.28,2.1,5,5.53,5q34.17,0,68.33,0c3.75,0,5.56-1.88,5.58-5.79,0-9.65,0-19.3,0-28.95ZM52.38,63.47a19.34,19.34,0,0,0,10.74-5.83c7.87-8.18,16-16.07,24.09-24.08.67-.67,1.31-1.38,1.88-2l-4.44-4.84C75.42,35.93,66.47,45,57.27,53.87,54.47,56.56,53.44,59.76,52.38,63.47ZM87.05,24l5,4.91c1-1.1,2.22-2.24,3.26-3.5A3.07,3.07,0,0,0,95.2,21a3.05,3.05,0,0,0-4.48-.15C89.44,21.86,88.24,23,87.05,24Z"/><path d="M30.05,16.71c-5.82,0-11.64,0-17.46,0-3.66,0-5.83-1.92-5.79-5S9,6.82,12.47,6.81q17.46-.06,34.92,0c3.52,0,5.63,1.91,5.66,4.9s-2.14,5-5.81,5C41.51,16.73,35.78,16.71,30.05,16.71ZM30,10.12c-5.64,0-11.28,0-16.91,0-1.3,0-3-.18-2.8,1.74.08.64,1.78,1.52,2.75,1.53,11.27.11,22.54.07,33.82.07,1.35,0,3,0,2.81-1.78-.06-.61-1.78-1.47-2.76-1.5C41.22,10.05,35.58,10.12,30,10.12Z"/><path d="M61.45,6.82a4.94,4.94,0,1,1-5,4.77A5,5,0,0,1,61.45,6.82Zm2.22,5.07A2,2,0,0,0,61.61,10a1.91,1.91,0,0,0-1.67,1.76,1.87,1.87,0,1,0,3.73.15Z"/><path d="M74.72,16.7a4.94,4.94,0,1,1,4.83-5.14A4.95,4.95,0,0,1,74.72,16.7ZM76.91,12a2.06,2.06,0,0,0-2-2,1.88,1.88,0,0,0-1.71,1.71,2,2,0,0,0,1.24,1.92A2,2,0,0,0,76.91,12Z"/><path d="M19.11,2.87c-1,0-2.29-.41-2.35-1S17.91.46,19,.41s2.63.79,2.57,1.43S20.16,2.88,19.11,2.87Z"/><path d="M37.08,76h-23a7.08,7.08,0,0,1-2.36-.12c-.63-.23-1.59-1.09-1.5-1.4a3.48,3.48,0,0,1,1.57-1.72c.46-.27,1.2-.09,1.82-.09H61.21c.36,0,.78-.12,1,0,.82.46,1.58,1,2.37,1.55-.81.58-1.61,1.65-2.42,1.67C53.83,76,45.46,76,37.08,76Z"/><path d="M35.81,39.81H57.5a4.63,4.63,0,0,1,1.83,0,11.44,11.44,0,0,1,2,1.57C60.66,42,60,42.94,59.3,43c-3.52.16-7,.08-10.58.08H13.8c-.62,0-1.36.2-1.83-.06a10.91,10.91,0,0,1-1.87-1.74c.63-.48,1.25-1.34,1.9-1.36,3.35-.15,6.7-.08,10.05-.08Z"/><path d="M32.36,49.63c-6.43,0-12.86,0-19.29,0-1.28,0-3,.21-2.82-1.71.08-.63,1.78-1.52,2.75-1.53q19.41-.15,38.84,0c.94,0,2.56.92,2.67,1.59.28,1.76-1.39,1.65-2.59,1.65C45.4,49.64,38.88,49.63,32.36,49.63Z"/><path d="M29,56.22c-5.37,0-10.75.08-16.12-.08-.94,0-2.56-1-2.63-1.61C10.07,52.78,11.72,53,12.93,53c10.75,0,21.5,0,32.26.06,1,0,2.72.87,2.77,1.45.16,1.83-1.49,1.73-2.84,1.73Z"/><path d="M27.61,66.15c4.85,0,9.69-.08,14.53.07.88,0,2.39.86,2.47,1.47.21,1.69-1.29,1.7-2.57,1.7-9.69,0-19.38,0-29.07-.07-1,0-2.66-.9-2.72-1.51-.21-2,1.56-1.64,2.83-1.65C17.92,66.13,22.77,66.15,27.61,66.15Z"/><path d="M27.55,59.47c4.84,0,9.69-.09,14.53.09.9,0,1.77,1.1,2.66,1.7-.88.51-1.75,1.46-2.63,1.47-9.78.1-19.55.07-29.33.06-1.24,0-2.83,0-2.54-1.74.11-.64,1.62-1.48,2.51-1.51C17.68,59.4,22.61,59.47,27.55,59.47Z"/><path d="M25,35.65c-3.69,0-9.88-.28-9.9-.93s4.82-1.42,9.5-1.46c5.13,0,10.29.92,10.26,1.51S28.51,35.66,25,35.65Z"/><path d="M68.28,66.16c2,0,4.06-.12,6.08.07.67.06,1.27.89,1.9,1.36-.62.6-1.22,1.68-1.86,1.71-4.23.15-8.47.15-12.69,0-.64,0-1.24-1.08-1.86-1.66.6-.49,1.18-1.36,1.82-1.41C63.86,66.05,66.07,66.16,68.28,66.16Z"/><path d="M71.31,62.75a12.23,12.23,0,0,1-3.15-.07c-.68-.18-1.18-1-1.75-1.55.59-.54,1.14-1.5,1.77-1.56a34.43,34.43,0,0,1,6.34,0c.62.06,1.16,1,1.73,1.59-.59.53-1.1,1.34-1.78,1.52A12.79,12.79,0,0,1,71.31,62.75Z"/><path d="M41.89,35.39c-2.52,0-3.24,0-3.47-.46a1.41,1.41,0,0,1,.45-1.41c.75-.74,2.26-.35,3.35-.34,2.37,0,3.15-.29,3.64.31a1.35,1.35,0,0,1,.19,1.41C45.74,35.45,45,35.41,41.89,35.39Z"/></g></g></svg>