<?xml version="1.0" encoding="utf-8"?>
<!-- Generator: Adobe Illustrator 24.0.1, SVG Export Plug-In . SVG Version: 6.00 Build 0)  -->
<svg version="1.1" id="Layer_1" xmlns="http://www.w3.org/2000/svg" xmlns:xlink="http://www.w3.org/1999/xlink" x="0px" y="0px"
	 viewBox="0 0 100 98.2" style="enable-background:new 0 0 100 98.2;" xml:space="preserve">
<title>playground</title>
<g>
	<path d="M73.4,0c0.8,0,1.7,0,2.5,0c0.1,0,0.2,0.1,0.4,0.1c2.6,0.2,4.9,1.1,7,2.5c6.1,3.9,8.8,11.8,6.2,18.6c-0.5,1.4-1.3,2.6-1.9,4
		c6.6,6,9.3,13.4,6.6,22.1c-2.7,8.7-9.1,13.3-18,14.6c0,0.1,0,0.3,0,0.4c0,7.3,0,14.7,0,22c0,0.3,0.2,0.7,0.4,0.9
		c2.4,2.2,5,4.3,7.4,6.6c2.6,2.4,5.5,3.5,9,3.5c2.3-0.1,4.6,0,6.9,0c0,1,0,2.1,0,3.1c-32.8,0-65.5,0-98.2,0c0-1,0-2.1,0-3.2
		c1.1,0,2.1,0,3.1,0c0-22.2,0-44.4,0-66.6c-1.6,0-3.2,0-4.8,0c0.1-0.2,0.2-0.3,0.3-0.4c6-7.4,12-14.7,18-22.1c1.6-2,3.2-4,4.8-6
		c1.6,0,3.2,0,4.8,0c0,0.1,0.1,0.1,0.1,0.2c6.9,8.5,13.8,16.9,20.6,25.4c0.8,0.9,1.5,1.9,2.4,3c-1.7,0-3.3,0-4.9,0
		c0,7.4,0,14.8,0,22.2c1,0,2-0.1,3,0c0.9,0.1,1.9,0.1,2.8,0.4c3.4,1.2,5.3,4.1,5.3,7.8c0,3.5,0,7,0,10.6c0,0.3-0.1,0.6,0.4,0.7
		c2.5,0.6,4.6,1.9,6.5,3.6c2.8,2.5,5.6,5,8.4,7.4c0.2,0.2,0.4,0.3,0.6,0.5c0-0.2,0-0.3,0-0.4c0-6.4,0-12.7,0-19.1
		c0-0.6-0.3-0.6-0.7-0.6c-2.1-0.2-4.1-0.7-6-1.6c-13.5-6-16.6-23.5-6-33.7c0.4-0.4,0.9-0.8,1.4-1.2c-2.3-3.4-3-6.4-3-9.5
		c0-6.8,4.6-13,11.4-15C71.2,0.3,72.3,0.2,73.4,0z M66.5,25.7c-4,2.3-6.9,5.5-8.4,9.8c-1.5,4.3-1.3,8.6,0.6,12.8
		c3.1,6.8,9.8,10,14.3,10.1c0-0.3,0-0.5,0-0.8c0-5.5,0-11,0-16.6c0-0.6,0.2-1.4-0.1-1.9c-0.3-0.5-1.1-0.6-1.8-0.8
		c-1.7-0.7-3.4-1.3-5.1-2c0.4-1,0.8-2,1.2-3c2.3,0.9,4.5,1.8,6.7,2.7c0.4,0.2,0.8,0.2,1.2,0c2-0.8,4.1-1.6,6.1-2.4
		c0.2-0.1,0.4-0.1,0.7-0.2c0.4,1,0.8,1.9,1.2,2.9c-2.1,0.8-4.2,1.7-6.3,2.5c-0.5,0.2-0.6,0.4-0.6,0.9c0,6,0,12.1,0,18.1
		c0,0.2,0,0.4,0,0.7c6.9-1,12.1-4.5,14.5-11c3.4-9.3,0.1-16.6-7.9-22c6.7-6.2,4.8-14.9,0.5-18.9c-4.8-4.5-12-4.8-17-0.5
		c-2.5,2.1-4,4.8-4.4,8C61.5,18.7,63.2,22.5,66.5,25.7z M42.9,73c-11.7,0-23.2,0-34.8,0c0,7.4,0,14.8,0,22.1c11.6,0,23.2,0,34.8,0
		C42.9,87.7,42.9,80.3,42.9,73z M42.9,28.6c-11.6,0-23.2,0-34.8,0c0,5.3,0,10.5,0,15.8c11.6,0,23.2,0,34.8,0
		C42.9,39.1,42.9,33.8,42.9,28.6z M46.1,95.1c9,0,17.9,0,26.8,0c0-0.1,0.1-0.3,0.1-0.4c0-2.7,0-5.5,0-8.2c0-0.2-0.2-0.5-0.4-0.7
		c-3.7-3.3-7.4-6.6-11.1-9.9c-1.8-1.6-3.9-2.7-6.3-2.8c-3-0.2-6-0.1-8.9-0.1c0,0-0.1,0-0.1,0.1C46.1,80.3,46.1,87.7,46.1,95.1z
		 M6.7,25.3c12.6,0,25.1,0,37.7,0c-0.2-0.3-0.4-0.5-0.5-0.7c-5.7-7-11.4-14-17.1-21c-0.6-0.7-1.9-0.7-2.4,0
		C19.1,10,14,16.3,8.8,22.7C8.1,23.5,7.4,24.4,6.7,25.3z M14.5,47.6c0,7.4,0,14.8,0,22.1c1.1,0,2.1,0,3.1,0c0-7.4,0-14.7,0-22.1
		C16.5,47.6,15.5,47.6,14.5,47.6z M42.9,69.7c0-7.4,0-14.7,0-22.1c-1.1,0-2.1,0-3.1,0c0,7.4,0,14.7,0,22.1
		C40.9,69.7,41.9,69.7,42.9,69.7z M8.1,47.6c0,7.4,0,14.7,0,22.1c1,0,2,0,3.1,0c0-7.4,0-14.8,0-22.1C10.2,47.6,9.2,47.6,8.1,47.6z
		 M23.9,69.7c0-7.4,0-14.7,0-22.1c-1.1,0-2.1,0-3.1,0c0,7.4,0,14.7,0,22.2c0.9,0,1.7,0,2.6,0C23.5,69.7,23.7,69.7,23.9,69.7z
		 M30.2,69.7c0-7.4,0-14.8,0-22.1c-1,0-2,0-3,0c0,7.4,0,14.8,0,22.1C28.2,69.7,29.2,69.7,30.2,69.7z M36.6,69.7c0-7.4,0-14.7,0-22.2
		c-0.3,0-0.5,0-0.8,0c-0.8,0-1.5,0-2.3,0c0,7.4,0,14.8,0,22.2C34.5,69.7,35.5,69.7,36.6,69.7z M46.2,61.8c0,2.6,0,5.2,0,7.8
		c2.6,0,5.2,0,7.8,0c0-2.6,0-5.2,0-7.8C51.4,61.8,48.8,61.8,46.2,61.8z M46.1,58.6c2.7,0,5.2,0,7.8,0c0.1-2.1-1.4-4.2-3.5-4.5
		c-1.4-0.3-2.8-0.2-4.3-0.2C46.1,55.5,46.1,57,46.1,58.6z M76.3,89c0,2.1,0,4.1,0,6.1c2.3,0,4.5,0,6.8,0C80.8,93,78.6,91,76.3,89z"
		/>
</g>
</svg>
