<?xml version="1.0" encoding="utf-8"?>
<!-- Generator: Adobe Illustrator 24.0.1, SVG Export Plug-In . SVG Version: 6.00 Build 0)  -->
<svg version="1.1" id="Layer_1" xmlns="http://www.w3.org/2000/svg" xmlns:xlink="http://www.w3.org/1999/xlink" x="0px" y="0px"
	 viewBox="0 0 100 100" style="enable-background:new 0 0 100 100;" xml:space="preserve">
<title>projects</title>
<g>
	<path d="M64.4,51.5c1.4-1.3,2.8-2.5,4.1-3.7c4.3-3.8,8.6-7.6,12.9-11.4c2.2-2,5.3-1.8,7.3,0.4c1.4,1.6,2.9,3.1,4.3,4.7
		c1.8,2.1,1.7,5.1-0.3,7c-5.3,4.8-10.7,9.7-16,14.5c-0.1,0.1-0.3,0.3-0.4,0.4c1.6,1.6,3.2,3.3,4.8,4.9c4.3,4.4,8.7,8.8,13,13.2
		c0.9,0.9,0.9,1.6,0,2.6c-5.1,5-10.2,10-15.3,15c-1,1-1.7,0.9-2.7-0.1c-5.9-6-11.9-12.1-17.8-18.1c-0.2-0.2-0.4-0.5-0.6-0.7
		c-2.1,1.9-4.2,3.8-6.3,5.7c-1.8,1.6-3.5,3.2-5.3,4.8c-0.4,0.3-0.9,0.6-1.3,0.8c-6.3,2.8-12.6,5.6-18.9,8.3c-1.1,0.5-2.1,0-2.2-1.1
		c0-0.4,0.2-0.9,0.4-1.2c2.7-4.9,5.5-9.8,8.3-14.7c0.3-0.6,0.7-1.2,1-1.8c0.7-1.5,1.8-2.6,3-3.7c3.2-2.8,6.3-5.7,9.4-8.6
		c0.1-0.1,0.2-0.1,0.4-0.4c-0.2-0.1-0.5-0.2-0.6-0.4C40.2,62.6,35,57.3,29.8,52.1c-1-1-0.9-1.7,0-2.6c5.1-5,10.2-10,15.3-15
		c0.9-0.9,1.7-0.9,2.6,0c5.3,5.4,10.6,10.8,16,16.2C63.9,51,64.1,51.2,64.4,51.5z M91.1,82.9C76.2,67.7,61.3,52.6,46.4,37.5
		c-4.5,4.4-9,8.9-13.5,13.3c1.3,1.3,2.5,2.6,3.8,3.9c0.2-0.1,0.3-0.2,0.4-0.4c1.2-1.1,2.3-2.3,3.5-3.4c1.6-1.6,3.2-3.2,4.9-4.8
		c0.9-0.8,2.1-0.6,2.5,0.4c0.3,0.7,0,1.3-0.5,1.8c-2.7,2.7-5.4,5.3-8.2,8c-0.1,0.1-0.3,0.2-0.5,0.3c1.3,1.4,2.5,2.6,3.7,3.9
		c0.2-0.2,0.4-0.4,0.6-0.6c1.5-1.4,3-2.8,4.5-4.2c0.7-0.7,1.6-0.7,2.2,0c0.6,0.6,0.6,1.5-0.1,2.1c-0.8,0.9-1.7,1.7-2.6,2.6
		c-0.7,0.7-1.5,1.4-2.2,2.2c1.2,1.3,2.4,2.5,3.7,3.8c1.6-1.5,3.1-3,4.6-4.5c1.4-1.3,2.7-2.7,4.1-4c0.8-0.8,1.8-0.7,2.4,0.2
		c0.4,0.7,0.3,1.4-0.3,2c-2.7,2.7-5.5,5.4-8.2,8c-0.1,0.1-0.3,0.2-0.5,0.3c1.3,1.4,2.5,2.6,3.8,3.9c0.5-0.5,0.9-0.9,1.3-1.4
		c1.2-1.2,2.3-2.3,3.5-3.5c0.6-0.6,1.5-0.6,2.1,0c0.6,0.6,0.6,1.5,0,2.1c-0.2,0.2-0.4,0.4-0.6,0.6c-1.4,1.4-2.8,2.8-4.2,4.2
		c1.2,1.3,2.4,2.5,3.8,3.9c1.3-1.3,2.4-2.6,3.7-3.9c1.6-1.6,3.2-3.2,4.9-4.8c0.7-0.7,1.7-0.7,2.3,0c0.6,0.7,0.5,1.5-0.2,2.2
		c-2.7,2.7-5.5,5.4-8.2,8.1c-0.1,0.1-0.3,0.3-0.4,0.4c1.2,1.3,2.4,2.5,3.7,3.8c0.2-0.2,0.3-0.4,0.4-0.5c1.4-1.4,2.9-2.9,4.3-4.3
		c0.9-0.9,2.2-0.6,2.5,0.5c0.2,0.7,0,1.2-0.5,1.6c-1.4,1.4-2.9,2.8-4.3,4.3c-0.1,0.1-0.3,0.3-0.4,0.4c1.3,1.3,2.5,2.5,3.8,3.8
		c0.1-0.1,0.2-0.2,0.4-0.4c2.7-2.6,5.4-5.3,8.1-7.9c0.9-0.9,1.7-1,2.4-0.3c0.7,0.7,0.6,1.5-0.3,2.4c-2.7,2.6-5.4,5.3-8.1,7.9
		c-0.1,0.1-0.2,0.3-0.3,0.3c1.3,1.3,2.5,2.5,3.8,3.8C82.1,91.6,86.6,87.3,91.1,82.9z M84.7,51.7c1.9-1.7,3.7-3.3,5.5-4.9
		c1.3-1.1,1.3-2.3,0.2-3.6c-1.3-1.4-2.6-2.9-3.9-4.3c-1-1.1-2.3-1.1-3.4-0.1c-1.5,1.4-2.9,2.7-4.4,4.1c-0.3,0.3-0.7,0.7-1.1,1
		C80.1,46.4,82.4,49,84.7,51.7z M42.3,89.2c-2.1-2.4-4.2-4.6-6.4-7c-2.4,4.3-4.8,8.6-7.2,12.9c0,0,0.1,0.1,0.1,0.1
		C33.3,93.2,37.7,91.3,42.3,89.2z M44.9,87.6c3.5-3.2,7-6.4,10.5-9.5c-0.9-1-1.8-1.9-2.7-2.9c-3.5,3.1-7,6.3-10.5,9.4
		C43,85.6,43.9,86.5,44.9,87.6z M40.2,82.4c3.5-3.2,7-6.3,10.4-9.4c-0.9-0.9-1.7-1.7-2.6-2.6c-3.4,3.1-6.8,6.2-10.3,9.3
		C38.6,80.7,39.3,81.5,40.2,82.4z M69.3,56.4c2.9-2.6,5.7-5.2,8.5-7.7c-0.9-0.9-1.7-1.8-2.6-2.7c-2.9,2.6-5.7,5.2-8.5,7.7
		C67.6,54.6,68.4,55.5,69.3,56.4z M82.4,53.7c-0.9-0.9-1.7-1.8-2.6-2.7c-2.9,2.5-5.7,5-8.4,7.5c0.9,0.9,1.8,1.8,2.7,2.7
		C76.9,58.7,79.6,56.2,82.4,53.7z"/>
	<path d="M97,28.4c-31.3,0-62.6,0-94,0c0,0.2,0,0.4,0,0.6c0,14.2,0,28.4,0,42.5c0,1.5,0.7,2.2,2.2,2.2c5,0,10,0,15,0
		c4.5,0,9,0,13.4,0c1.2,0,1.8,0.6,1.7,1.6c0,0.8-0.5,1.3-1.3,1.4c-0.2,0-0.3,0-0.5,0c-9.5,0-19,0-28.5,0c-2.6,0-4.6-1.6-5.1-4
		C0,72.5,0,72.1,0,71.8C0,49,0,26.2,0,3.5c0-1.8,0.9-3,2.4-3.3c0.3-0.1,0.7-0.1,1-0.1c10.6,0,21.2,0,31.9,0c3.2,0,5.8,1.2,8,3.5
		c0.1,0.1,0.1,0.2,0.2,0.3c1.4,2.1,2.7,4.2,4.1,6.3c0.2,0.4,0.5,0.5,0.9,0.5c15.4,0,30.7,0,46.1,0c2.5,0,4.5,1.5,5.3,3.8
		c0.1,0.4,0.2,0.9,0.2,1.4c0,18.6,0,37.3,0,55.9c0,3.1-2.5,5.1-5.1,5c-0.9,0-1.7,0-2.6,0c-1,0-1.5-0.6-1.6-1.5
		c0-0.9,0.5-1.5,1.5-1.5c0.8,0,1.7,0,2.5,0c1.5,0,2.2-0.7,2.2-2.2c0-14.2,0-28.4,0-42.6C97,28.8,97,28.6,97,28.4z M96.8,25.3
		c0-0.2,0-0.4,0-0.6c0-2.9,0-5.9,0-8.8c0-0.5-0.2-1-0.5-1.4c-0.5-0.6-1.1-0.9-1.9-0.9c-15.7,0-31.4,0-47.1,0c-0.8,0-1.4-0.3-1.8-1
		c-1.4-2.2-2.9-4.3-4.3-6.5c-1.4-2.2-3.4-3.1-5.9-3.1c-10.6,0-21.2,0-31.7,0c-0.2,0-0.4,0-0.6,0c0,7.5,0,14.9,0,22.2
		C34.3,25.3,65.5,25.3,96.8,25.3z"/>
	<path d="M20.7,62.3c3.9,0,7.8,0,11.8,0c1.2,0,1.9,0.9,1.6,2c-0.2,0.6-0.6,0.9-1.2,1c-0.2,0-0.4,0-0.6,0c-7.7,0-15.4,0-23.1,0
		c-0.4,0-0.8-0.1-1.1-0.3c-0.6-0.3-0.8-1-0.6-1.7c0.2-0.6,0.7-1,1.4-1c1.7,0,3.5,0,5.2,0C16.2,62.3,18.4,62.3,20.7,62.3z"/>
	<path d="M20.7,41.2c-3.9,0-7.8,0-11.8,0c-1.1,0-1.9-0.9-1.6-1.9c0.1-0.6,0.6-1,1.2-1c0.1,0,0.2,0,0.3,0c7.9,0,15.8,0,23.7,0
		c0.8,0,1.3,0.3,1.5,0.9c0.4,1.1-0.3,2.1-1.5,2.1C28.5,41.2,24.6,41.2,20.7,41.2z"/>
	<path d="M16.9,50.2c2.7,0,5.3,0,8,0c1.2,0,1.8,0.8,1.5,1.9c-0.1,0.6-0.5,1-1.1,1.1c-0.2,0-0.4,0-0.6,0c-5.3,0-10.5,0-15.8,0
		c-1.2,0-2-0.9-1.7-2c0.2-0.7,0.7-1,1.4-1.1c1.4,0,2.8,0,4.2,0C14.3,50.2,15.6,50.2,16.9,50.2z"/>
</g>
</svg>
