<?xml version="1.0" encoding="utf-8"?>
<!-- Generator: Adobe Illustrator 24.0.1, SVG Export Plug-In . SVG Version: 6.00 Build 0)  -->
<svg version="1.1" id="Layer_1" xmlns="http://www.w3.org/2000/svg" xmlns:xlink="http://www.w3.org/1999/xlink" x="0px" y="0px"
	 viewBox="0 0 100 99.8" style="enable-background:new 0 0 100 99.8;" xml:space="preserve">
<title>home</title>
<path d="M98.8,40.5c-0.2-0.2-0.5-0.4-0.7-0.6c-10.3-8.6-20.6-17.2-30.9-25.8C61.9,9.6,56.6,5.2,51.3,0.8c-1-0.9-1.6-0.9-2.6,0
	c-0.3,0.2-0.6,0.5-0.8,0.7c-15.6,13-31.2,26-46.7,39c-0.4,0.4-0.7,0.8-1.1,1.3v0.6c0.4,0.9,1.2,1.2,2.2,1.2c1.7-0.1,3.3,0,5,0h1.5
	v49.1c0,0.3,0,0.7,0,1c0.1,3.6,2.4,6,6.1,6c8.4,0,16.7,0,25.1,0c1.6,0,2-0.4,2-2v-26c0-1.2,0-2.4,0-3.6c0.2-5.2,4.8-8.9,9.8-7.8
	c3.8,0.8,6.4,4.1,6.4,8.1c0,9.7,0,19.5,0,29.2c0,1.7,0.4,2.1,2.1,2.1c8.3,0,16.6,0,24.9,0c0.6,0,1.2,0,1.8-0.2
	c2.7-0.7,4.4-2.9,4.4-5.9V43.6c0.4,0,0.8,0,1.1,0c1.8,0,3.6,0,5.4,0c0.9,0,1.7-0.1,2.1-1C100.1,41.6,99.5,41,98.8,40.5z M93.9,40.6
	c-1.2,0-2.4,0-3.7,0c-1.5,0-2,0.5-2,2v50.5c0,2.6-0.9,3.6-3.5,3.6H61v-1.9c0-8.8,0-17.6,0-26.4c0-5.3-3.2-9.7-8.1-11
	c-7.3-2-14.1,3.3-14.1,11c0,8.4,0,16.7,0,25.1v3.1c-0.5,0-0.8,0.1-1.1,0.1H15.2c-2.6,0-3.5-0.9-3.5-3.6V43.2c0-0.4,0-0.7,0-1.1
	c-0.1-1-0.6-1.5-1.6-1.5c-1.4,0-2.7,0-4.1-0.2C20.6,28.1,35.2,15.9,50,3.6c14.7,12.3,29.3,24.5,44,36.8
	C93.9,40.4,93.9,40.5,93.9,40.6z"/>
</svg>
