    <svg
      viewBox="0 0 330.5 340.5">
          <path
            class="K"
            d="M100.6,295.8c7.5,0.8,20.4,2.2,36.2-4.8c13.4-5.7,24.7-15.5,32.3-27.9c6.5-10.5,11-22.1,13.1-34.3
			c1.3-10.1,0.6-20.3-1.9-30.1c-1.7-6.6-5.8-21.9-19.2-35.2c-4.9-4.9-10.5-9-16.7-12.2c4.3-1.3,8.4-3.2,12.2-5.8
			c4.7-3.3,8.9-7.4,12.2-12.2c7.8-10.8,12.9-23.3,14.8-36.5c1.4-9.2,0.9-18.5-1.3-27.5c-1.7-6.7-4.5-18.2-14.7-28.2
			c-8.6-8.5-19-11.1-24.7-12.5c14-2.3,28.2-2.5,42.3-0.6c16.6,2.3,26.7,5.6,33.3,8.3c7.1,2.9,13.9,6.3,20.5,10.2
			c0.3,2.7,0.2,7.8,0.2,12c-0.1,7.9-1.1,15.8-3,23.5c-1.7,7-3.3,13.8-7.7,21.8c-3.8,7-8.9,13.3-14.8,18.6c1.9,2.1,4.8,3.8,7.4,8
			c4.4,7.1,5.3,14,6.1,13.8c0.6-0.2,1-6.3-1.6-12.5c-1.6-3.7-4-7-7.1-9.6c4.8-4,8.9-8.8,12.2-14.1c2.7-4.4,4.8-9.2,6.4-14.1
			c1.7-4.8,3-9.7,3.8-14.7c1.7-10.3,2-20.7,1-31.1c11.4,6.9,21.6,15.4,30.5,25.3c12.9,14.4,21,28.6,25,38.4
			c-0.6,2.6-2.9,7.8-4.8,12.5c-1.7,4.1-13.5,31.2-34.6,35.2c-10.1,1.9-17.3-1-17.3-0.6c0,0.4,2.6,1.3,6.4,1.9
			c13.3,2.2,26.6,4.4,34.6,8.3c5.2,2.5,17.3,9.7,23.7,32c-1.6,13.1-10.1,30.6-20.2,47.1c-17.8,29.1-46.9,44.4-59.3,50.9
			c3.9-7.8,14.9-33.5,8.7-64.4c-3.4-16.5-11-31.8-22.1-44.5c23.2,32.9,25.9,76,7,111.5c-21.1,8.6-43.9,12.1-66.6,10.2
			C128.6,310.1,111.7,301.5,100.6,295.8z"
          />
       
          <path
            class="S"
            d="M114.8,143c7.6,3.6,10.5,3.6,18.5,6.9c4.5,2,8.9,4.3,13.1,6.9c12.9,8.4,19.4,20,21.8,24.3
			c5.5,10.1,8.5,21.2,9,32.7c0.5,8.6-0.3,17.3-2.6,25.6c-1.6,5.7-8,27.2-29.5,41.6C121.4,297,96.4,293,91.2,292
			c-17.5-10.3-32.6-24.2-44.2-40.9c-10.2-14.8-17.6-31.4-21.8-48.8c6-8.5,14.2-15.1,23.7-19.2c0,0,16.2-6.8,33.3-2.6
			c6.9,1.7,10.3,4.4,12.2,6.4c2.2,2.1,3.7,4.8,4.5,7.7c1.7,6.6-1.7,12.2-2.6,13.5c1.9-1,3.5-2.6,4.5-4.5c2.6-5,0.1-10.5-0.6-12.2
			c-3.7-8.2-13.1-10.5-21.1-14.1C57.7,168,45.3,149.5,40,138.9c-3.9-8-6.3-16.7-7-25.6c3.8-9,8.5-17.6,14.1-25.6
			c14.4-20.4,33.8-36.8,56.4-47.5c10.7-4.8,21.8-8.5,33.3-10.9c11.7,2.9,22.3,9.4,30.1,18.6c11.5,14,12.4,29.4,12.8,35.9
			c0.8,14.8-3.6,26.3-5.8,32c-1.7,4.5-3.8,8.8-6.4,12.8c-4,6.5-9.5,12-16,16c-3.4,2-7.1,3.5-10.9,4.5c-8.6-1.9-17.1-4.5-25.2-7.8
			c-8.1-3.3-10.5-5.2-11.5-8.1c-1.7-5,1.2-12,6.9-15c5.7-3,11.9-0.4,12.7,0c-0.6-0.4-6.7-4.3-13.3-1.7c-7.2,2.9-10.1,11.6-8.1,17.3
			C103.5,137.6,107.3,139.4,114.8,143z"
          />


            <path
              class="letter"
              d="M37.2,80.7l2-3.2c1.1,0.6,2.1,0.8,3,0.6c0.9-0.2,1.7-0.7,2.4-1.7c0.8-1,1.1-1.9,1.1-2.7
				c0-0.8-0.3-1.4-0.9-1.9c-0.4-0.3-0.7-0.4-1.1-0.4c-0.4,0-0.9,0.2-1.5,0.6c-0.4,0.3-1.2,0.9-2.5,1.9c-1.7,1.3-3,2.1-4.1,2.3
				c-1.5,0.3-2.9,0-4.1-1c-0.8-0.6-1.3-1.4-1.6-2.3c-0.3-0.9-0.4-2-0.1-3c0.3-1.1,0.9-2.2,1.8-3.4c1.5-1.9,3-3,4.5-3.3
				c1.6-0.3,3,0,4.5,1.1l-2.2,3.1c-0.9-0.5-1.6-0.6-2.3-0.5c-0.7,0.2-1.3,0.7-2,1.5c-0.7,0.9-1,1.7-1.1,2.5c0,0.5,0.2,0.9,0.6,1.2
				c0.4,0.3,0.8,0.4,1.3,0.3c0.6-0.1,1.7-0.8,3.2-2c1.5-1.2,2.7-2,3.6-2.4c0.9-0.4,1.9-0.6,2.8-0.5c1,0.1,1.9,0.5,2.9,1.2
				c0.9,0.7,1.5,1.5,1.9,2.6c0.4,1.1,0.4,2.2,0.1,3.3c-0.3,1.2-1,2.4-2,3.7c-1.5,1.9-3,3-4.7,3.4C40.7,82.2,39,81.8,37.2,80.7z"
            />
          

            <path
              class="letter"
              d="M57.2,66.1L45.9,55l-4,4l-2.3-2.3L50.3,46l2.3,2.3l-4,4l11.2,11.1L57.2,66.1z"
            />
          

            <path
              class="letter"
              d="M67.4,56L55.7,41.1l11.1-8.7l2,2.5l-8.1,6.3l2.6,3.3l7.5-5.9l2,2.5l-7.5,5.9l3.2,4.1l8.4-6.6l2,2.5L67.4,56z"
            />
          

            <path
              class="letter"
              d="M82.3,44.7l-9.8-16.1l3.3-2L83.9,40l8.2-4.9l1.7,2.7L82.3,44.7z"
            />
          

            <path
              class="letter"
              d="M97.1,36.1L88.7,19l3.5-1.7l8.3,17.1L97.1,36.1z"
            />
          

            <path
              class="letter"
              d="M102,23.1c-0.7-1.8-0.9-3.4-0.8-4.9c0.1-1.1,0.3-2.1,0.8-3.1c0.4-1,1-1.8,1.7-2.4c0.9-0.9,2.1-1.6,3.6-2.1
				c2.6-1,5-0.9,7.2,0.2c2.2,1.1,3.8,3,4.8,6c1,2.9,1.1,5.4,0.1,7.6c-1,2.2-2.8,3.8-5.4,4.7c-2.7,1-5.1,0.9-7.2-0.1
				C104.7,27.9,103.1,25.9,102,23.1z M105.7,21.6c0.7,2,1.8,3.4,3.1,4.1c1.3,0.7,2.7,0.8,4.1,0.3c1.4-0.5,2.4-1.5,3-2.8
				c0.5-1.4,0.4-3.1-0.3-5.2c-0.7-2-1.7-3.4-3-4.1c-1.3-0.7-2.6-0.8-4.1-0.2c-1.5,0.5-2.5,1.5-3,2.8C104.9,17.9,105,19.6,105.7,21.6
				z"
            />
          

            <path
              class="letter"
              d="M124,18.8l3.6-1.1c0.5,1.2,1.1,2,1.9,2.4s1.8,0.5,2.9,0.3c1.2-0.3,2.1-0.7,2.6-1.4c0.5-0.6,0.7-1.3,0.5-2
				c-0.1-0.4-0.3-0.8-0.6-1c-0.3-0.3-0.8-0.4-1.5-0.5c-0.5-0.1-1.5-0.1-3.2-0.2c-2.1-0.1-3.7-0.4-4.6-0.9c-1.4-0.8-2.2-1.9-2.5-3.4
				c-0.2-0.9-0.1-1.9,0.2-2.8c0.4-0.9,1-1.7,1.9-2.4c0.9-0.6,2.1-1.1,3.5-1.4c2.3-0.5,4.2-0.4,5.6,0.4c1.4,0.8,2.3,2,2.7,3.7l-3.7,1
				c-0.4-0.9-0.9-1.5-1.5-1.8c-0.6-0.3-1.5-0.3-2.5-0.1c-1.1,0.2-1.9,0.6-2.4,1.2c-0.3,0.4-0.5,0.8-0.3,1.3c0.1,0.4,0.4,0.8,0.8,1
				c0.6,0.3,1.8,0.5,3.7,0.5s3.4,0.2,4.3,0.5c1,0.3,1.8,0.8,2.5,1.4c0.7,0.7,1.1,1.6,1.4,2.8c0.2,1.1,0.1,2.1-0.2,3.2
				c-0.4,1.1-1.1,1.9-2.1,2.6c-1,0.7-2.3,1.2-3.9,1.5c-2.3,0.5-4.3,0.4-5.8-0.5C125.8,22.3,124.7,20.8,124,18.8z"
            />
          

            <path
              class="letter"
              d="M153.1,19.9l-0.4-19l3.8-0.1l0.2,8.4l7.6-8.6l5.2-0.1l-7,7.6l7.8,11.4l-5,0.1l-5.4-8.8l-3,3.2l0.1,5.7
				L153.1,19.9z"
            />
          

            <path
              class="letter"
              d="M191.5,21.8l-4.1-0.5l-1.1-4.5l-7.5-0.9l-2.1,4.1l-4-0.5l9.6-17.9l4,0.5L191.5,21.8z M185.4,13.5l-1.7-7.3
				l-3.4,6.7L185.4,13.5z"
            />
          

            <path
              class="letter"
              d="M194.4,22.3l4.9-18.4l3.7,1l-2.2,8.2l9.7-6.2l5,1.3l-8.9,5.3l4.3,13.2l-4.8-1.3l-2.7-10l-3.8,2.3l-1.5,5.6
				L194.4,22.3z"
            />
          

            <path
              class="letter"
              d="M217.2,18.7c0.7-1.8,1.6-3.2,2.7-4.2c0.8-0.7,1.7-1.3,2.6-1.7c1-0.4,2-0.6,2.9-0.6c1.3,0,2.6,0.3,4.1,0.9
				c2.6,1.1,4.3,2.7,5.2,5c0.9,2.3,0.7,4.8-0.5,7.7c-1.2,2.8-2.9,4.7-5.1,5.7c-2.2,1-4.6,0.9-7.2-0.2c-2.6-1.1-4.3-2.8-5.2-5
				C215.8,24,216,21.5,217.2,18.7z M220.8,20.1c-0.8,2-1,3.7-0.5,5.1c0.5,1.4,1.4,2.4,2.8,3c1.4,0.6,2.8,0.6,4.1-0.1
				c1.3-0.6,2.4-2,3.3-4c0.8-2,1-3.7,0.6-5c-0.5-1.4-1.4-2.3-2.9-3c-1.5-0.6-2.8-0.6-4.2,0C222.8,16.8,221.7,18.1,220.8,20.1z"
            />
          

            <path
              class="letter"
              d="M234,36.3l9.4-16.2l3.3,1.9l-7.8,13.5l8.2,4.8l-1.6,2.8L234,36.3z"
            />
          

            <path
              class="letter"
              d="M248.6,45.2l11-15.6l3.1,2.2l-11,15.6L248.6,45.2z"
            />
          

            <path
              class="letter"
              d="M256.8,50.9l12.5-14.3l6.1,5.3c1.5,1.3,2.5,2.4,3,3.3c0.5,0.9,0.6,1.8,0.5,2.8c-0.2,1-0.6,2-1.4,2.8
				c-0.9,1.1-2,1.7-3.3,1.8c-1.2,0.1-2.6-0.2-4-1.2c0.3,0.9,0.5,1.8,0.5,2.6c0,0.8-0.1,2-0.4,3.8l-0.7,4.3l-3.4-3l0.6-4.9
				c0.2-1.8,0.3-2.9,0.3-3.4c0-0.5-0.1-1-0.3-1.4c-0.2-0.4-0.6-0.9-1.3-1.4l-0.6-0.5l-5.2,5.9L256.8,50.9z M266.9,45.2l2.1,1.9
				c1.4,1.2,2.3,1.9,2.7,2.1c0.4,0.2,0.9,0.2,1.3,0.1s0.9-0.4,1.2-0.8c0.4-0.5,0.6-1,0.6-1.5c0-0.5-0.2-1-0.6-1.5
				c-0.2-0.2-0.9-0.9-2.1-1.9l-2.2-2L266.9,45.2z"
            />
          

            <path
              class="letter"
              d="M271.7,64.4l13.9-12.9l2.6,2.8l-13.9,12.9L271.7,64.4z"
            />
          

            <path
              class="letter"
              d="M282.8,67.1l2.6,2.7c-0.9,0.9-1.3,1.9-1.4,2.8c0,0.9,0.3,1.8,1,2.7c0.8,1,1.5,1.6,2.3,1.7
				c0.8,0.2,1.5,0.1,2-0.4c0.4-0.3,0.6-0.6,0.7-1c0.1-0.4,0-0.9-0.2-1.6c-0.2-0.5-0.6-1.4-1.2-2.9c-0.9-1.9-1.2-3.5-1.2-4.6
				c0.1-1.6,0.8-2.8,2-3.7c0.8-0.6,1.7-0.9,2.7-1c1-0.1,2,0.2,3,0.7c1,0.5,1.9,1.4,2.8,2.6c1.5,1.9,2.1,3.6,2,5.2
				c-0.1,1.6-0.8,2.9-2.2,4.1l-2.5-2.9c0.7-0.7,1-1.4,1-2.1s-0.3-1.5-1-2.3c-0.7-0.9-1.4-1.4-2.1-1.7c-0.5-0.1-0.9-0.1-1.3,0.2
				c-0.4,0.3-0.5,0.7-0.6,1.2c0,0.6,0.4,1.8,1.1,3.6c0.8,1.7,1.3,3.1,1.4,4.1c0.2,1,0.1,1.9-0.2,2.8c-0.3,0.9-1,1.7-1.9,2.4
				c-0.9,0.7-1.9,1-3,1.1c-1.1,0.1-2.2-0.1-3.2-0.7c-1-0.6-2.1-1.5-3.1-2.9c-1.5-1.9-2.2-3.7-2.1-5.4
				C280.5,70.2,281.3,68.6,282.8,67.1z"
            />
          

            <path
              class="letter"
              d="M316.5,157.6l4.9-0.3l-0.3-5l3.4-0.2l0.3,5l4.9-0.3l0.2,3.3l-4.9,0.3l0.3,5l-3.4,0.2l-0.3-5l-4.9,0.3
				L316.5,157.6z"
            />
          

            <path
              class="letter"
              d="M13.8,160.1l-4.9-0.4l-0.4,5l-3.4-0.2l0.4-5l-4.9-0.4l0.2-3.3l4.9,0.4l0.4-5l3.4,0.2l-0.4,5l4.9,0.4
				L13.8,160.1z"
            />
          

            <path
              class="letter"
              d="M8.9,234.6l17.1-7.9l5.5,11.9l-2.9,1.3l-3.9-8.4l-4,1.9l3.4,7.3l-2.9,1.3l-3.4-7.3l-7.2,3.3L8.9,234.6z"
            />
          

            <path
              class="letter"
              d="M33,242l2,3.3l-8.6,5.4c-1.4,0.9-2.2,1.4-2.6,1.8c-0.6,0.5-0.9,1.2-0.9,2c-0.1,0.8,0.2,1.6,0.8,2.5
				c0.6,0.9,1.2,1.5,1.9,1.8c0.7,0.2,1.3,0.2,1.9,0c0.6-0.2,1.5-0.8,2.8-1.5l8.8-5.5l2,3.3l-8.4,5.2c-1.9,1.2-3.3,1.9-4.2,2.3
				c-0.9,0.3-1.8,0.4-2.6,0.3c-0.8-0.1-1.7-0.5-2.5-1.1c-0.8-0.6-1.6-1.5-2.4-2.8c-1-1.6-1.5-2.8-1.7-3.9c-0.1-1-0.1-1.9,0.2-2.8
				c0.3-0.8,0.7-1.5,1.2-2c0.8-0.8,2.1-1.7,3.8-2.8L33,242z"
            />
          

            <path
              class="letter"
              d="M29.9,271.9l14.5-11.7l2.4,3l-12,9.7l6,7.5l-2.5,2L29.9,271.9z"
            />
          

            <path
              class="letter"
              d="M42.1,286.5l13-13.2l2.8,2.7l-10.8,11l6.9,6.8l-2.2,2.2L42.1,286.5z"
            />
          

            <path
              class="letter"
              d="M58.5,295.3l2.3-2.8l5.5,4.6l-2.3,2.8L58.5,295.3z"
            />
          

            <path
              class="letter"
              d="M65.9,300.2l3.3,1.8c-0.5,1.1-0.7,2.1-0.4,3c0.2,0.9,0.8,1.6,1.8,2.3c1,0.7,1.9,1,2.8,1s1.4-0.4,1.8-0.9
				c0.3-0.4,0.4-0.7,0.3-1.2c0-0.4-0.3-0.9-0.7-1.5c-0.3-0.4-1-1.2-2.1-2.4c-1.4-1.6-2.3-2.9-2.5-4c-0.4-1.5-0.1-2.9,0.7-4.1
				c0.5-0.8,1.3-1.4,2.2-1.7c0.9-0.4,1.9-0.4,3-0.2c1.1,0.2,2.3,0.8,3.5,1.6c2,1.4,3.2,2.8,3.6,4.3c0.4,1.5,0.2,3-0.8,4.5l-3.3-2.1
				c0.4-0.9,0.5-1.7,0.3-2.3c-0.2-0.7-0.8-1.3-1.7-1.9c-0.9-0.6-1.8-1-2.6-0.9c-0.5,0-0.9,0.2-1.2,0.6c-0.3,0.4-0.3,0.8-0.2,1.3
				c0.2,0.6,0.9,1.6,2.2,3c1.3,1.4,2.2,2.6,2.7,3.5c0.5,0.9,0.7,1.8,0.7,2.8c0,0.9-0.4,1.9-1.1,2.9c-0.6,0.9-1.4,1.5-2.5,2
				c-1,0.4-2.1,0.5-3.3,0.2s-2.4-0.9-3.8-1.8c-2-1.4-3.2-2.9-3.6-4.5C64.6,303.8,64.9,302.1,65.9,300.2z"
            />
          

            <path
              class="letter"
              d="M84.2,319.3l7.2-13.8l-5-2.6l1.5-2.8l13.5,7.1l-1.5,2.8l-5-2.6l-7.2,13.8L84.2,319.3z"
            />
          

            <path
              class="letter"
              d="M113.2,332l-3.9-1.5l0-4.6l-7.1-2.7l-3,3.4l-3.8-1.5l13.6-14.8l3.8,1.5L113.2,332z M109.2,322.6l0-7.4
				l-4.9,5.6L109.2,322.6z"
            />
          

            <path
              class="letter"
              d="M131,329.5l3.4,2c-1,1.9-2.3,3.1-3.8,3.8c-1.5,0.7-3.3,0.7-5.3,0.3c-2.5-0.6-4.3-1.9-5.5-3.9
				c-1.2-2-1.4-4.5-0.8-7.4c0.7-3,2.1-5.2,4.1-6.5c2-1.3,4.3-1.6,6.9-1c2.3,0.5,4,1.6,5.1,3.3c0.7,1,1,2.3,1.1,3.8l-3.9,0
				c0-1-0.3-1.9-0.8-2.6c-0.6-0.7-1.3-1.2-2.3-1.4c-1.4-0.3-2.6-0.1-3.7,0.7c-1.1,0.8-1.9,2.2-2.4,4.4c-0.5,2.3-0.5,4,0.1,5.2
				c0.6,1.2,1.6,1.9,2.9,2.3c1,0.2,1.9,0.1,2.8-0.3C129.7,331.6,130.4,330.8,131,329.5z"
            />
          

            <path
              class="letter"
              d="M139.4,338.2l1.8-18.6l3.8,0.4l-0.8,8.3l8.6-7.5l5.2,0.5l-7.9,6.6l6.4,12.1l-5-0.5l-4.4-9.3l-3.4,2.8
				l-0.5,5.6L139.4,338.2z"
            />
          

            <path
              class="letter"
              d="M170.8,321.3l7-0.7c1.6-0.2,2.8-0.2,3.7,0c1.1,0.2,2.2,0.7,3,1.4c0.9,0.7,1.6,1.7,2.1,2.8
				c0.5,1.2,0.9,2.6,1.1,4.3c0.2,1.5,0.1,2.9-0.2,4c-0.3,1.4-0.9,2.6-1.7,3.5c-0.6,0.7-1.5,1.3-2.6,1.8c-0.8,0.3-1.9,0.6-3.4,0.7
				l-7.2,0.7L170.8,321.3z M174.9,324.1l1.2,12.3l2.9-0.3c1.1-0.1,1.8-0.2,2.3-0.4c0.6-0.2,1.1-0.5,1.5-0.9c0.4-0.4,0.7-1,0.8-1.9
				c0.2-0.9,0.2-2,0.1-3.5s-0.4-2.5-0.7-3.3c-0.3-0.7-0.8-1.3-1.3-1.7c-0.5-0.4-1.1-0.6-1.9-0.7c-0.5-0.1-1.6,0-3.2,0.1L174.9,324.1
				z"
            />
          

            <path
              class="letter"
              d="M194.7,337.3l-4.2-18.2l13.8-3.2l0.7,3.1l-10,2.3l0.9,4l9.3-2.2l0.7,3.1l-9.3,2.2l1.2,5l10.4-2.4l0.7,3.1
				L194.7,337.3z"
            />
          

            <path
              class="letter"
              d="M219.4,330.7l-12.9-15.2l3.9-1.5l9.4,11.3l-0.5-14.6l3.8-1.4l0.1,19.9L219.4,330.7z"
            />
          

            <path
              class="letter"
              d="M235.5,324.2l-8.8-16.7l12.5-6.7l1.5,2.8l-9.1,4.9l2,3.7l8.5-4.5l1.5,2.8l-8.5,4.5l2.4,4.5l9.4-5l1.5,2.8
				L235.5,324.2z"
            />
          

            <path
              class="letter"
              d="M253.6,314.3L243.1,299l3.2-2.2l8.7,12.7l7.9-5.4l1.8,2.6L253.6,314.3z"
            />
          

            <path
              class="letter"
              d="M262.2,297.2c-1.3-1.4-2.1-2.8-2.5-4.2c-0.3-1-0.4-2-0.4-3.1s0.3-2,0.8-2.9c0.6-1.2,1.4-2.3,2.6-3.3
				c2.1-1.9,4.4-2.7,6.8-2.6c2.4,0.2,4.6,1.4,6.6,3.7c2,2.3,2.9,4.6,2.8,7c-0.1,2.4-1.3,4.5-3.4,6.4c-2.1,1.9-4.4,2.8-6.8,2.6
				C266.4,300.7,264.2,299.5,262.2,297.2z M265.1,294.5c1.4,1.6,2.8,2.5,4.3,2.6c1.5,0.2,2.8-0.3,4-1.3s1.8-2.3,1.8-3.7
				c0-1.5-0.7-3-2.1-4.7c-1.4-1.6-2.8-2.5-4.3-2.6s-2.7,0.3-3.9,1.4c-1.2,1.1-1.8,2.3-1.8,3.8C263,291.3,263.7,292.9,265.1,294.5z"
            />
          

            <path
              class="letter"
              d="M286.4,287.7l-14.1-12.4l4.1-4.7c1.5-1.8,2.6-2.9,3.2-3.3c0.9-0.6,2-0.9,3.2-0.9s2.3,0.6,3.5,1.6
				c0.9,0.8,1.4,1.6,1.8,2.4c0.3,0.8,0.4,1.7,0.3,2.4c-0.1,0.8-0.3,1.5-0.6,2.1c-0.5,0.8-1.3,1.9-2.4,3.2l-1.7,1.9l5.3,4.7
				L286.4,287.7z M277.3,274.5l4,3.5l1.4-1.6c1-1.1,1.6-2,1.8-2.5c0.2-0.5,0.2-1,0.1-1.5s-0.4-0.9-0.8-1.3c-0.5-0.5-1.1-0.7-1.7-0.7
				c-0.6,0-1.1,0.2-1.6,0.6c-0.4,0.3-1,1-1.9,2L277.3,274.5z"
            />
          

            <path
              class="letter"
              d="M299.8,272l-15.5-10.6l8-11.7l2.6,1.8l-5.8,8.5l3.4,2.3l5.4-7.9l2.6,1.8l-5.4,7.9l4.2,2.9l6-8.8l2.6,1.8
				L299.8,272z"
            />
          

            <path
              class="letter"
              d="M311.3,254.7l-16.7-8.6l3.7-7.2c0.9-1.8,1.8-3.1,2.5-3.7c0.7-0.7,1.6-1.1,2.6-1.2c1-0.1,2,0.1,3,0.6
				c1.3,0.6,2.1,1.6,2.5,2.7c0.4,1.2,0.4,2.6-0.2,4.2c0.8-0.5,1.6-0.9,2.4-1.1c0.8-0.2,2-0.4,3.7-0.6l4.3-0.4l-2.1,4.1l-4.9,0.6
				c-1.8,0.2-2.9,0.4-3.4,0.5c-0.5,0.2-0.9,0.4-1.2,0.7c-0.3,0.3-0.7,0.8-1.1,1.6l-0.4,0.7l7,3.6L311.3,254.7z M303.4,246.3l1.3-2.5
				c0.9-1.7,1.3-2.7,1.4-3.2c0.1-0.5,0-0.9-0.2-1.3c-0.2-0.4-0.6-0.7-1.1-1c-0.6-0.3-1.1-0.4-1.6-0.2c-0.5,0.1-0.9,0.4-1.3,1
				c-0.2,0.3-0.6,1.1-1.4,2.5l-1.4,2.7L303.4,246.3z"
            />
    </svg>

